<svg width="80" height="80" viewBox="0 0 288 459" fill="none" xmlns="http://www.w3.org/2000/svg">
<path d="M22.8359 327.242C22.8359 307.393 23.125 288.508 23.7031 270.586C24.474 252.664 25.1484 235.513 25.7266 219.133C26.3047 202.753 26.6901 187.047 26.8828 172.016C27.0755 156.792 26.5938 142.049 25.4375 127.789C24.474 128.367 23.3177 129.331 21.9688 130.68C20.8125 132.029 19.5599 133.378 18.2109 134.727C17.0547 136.076 15.8021 137.328 14.4531 138.484C13.1042 139.448 11.9479 139.93 10.9844 139.93C9.44271 139.93 7.9974 139.352 6.64844 138.195C5.49219 136.846 4.91406 135.208 4.91406 133.281V132.414C4.91406 132.221 5.01042 131.932 5.20312 131.547C6.9375 129.427 8.96094 126.055 11.2734 121.43C13.7786 116.805 16.3802 112.18 19.0781 107.555C21.9688 102.93 24.6667 98.8828 27.1719 95.4141C29.8698 91.7526 32.1823 89.9219 34.1094 89.9219C36.0365 89.9219 37.4818 90.4036 38.4453 91.3672C39.4089 92.3307 40.1797 93.487 40.7578 94.8359C41.5286 96.1849 42.2031 97.6302 42.7812 99.1719C43.5521 100.714 44.7083 101.966 46.25 102.93C52.8021 99.0755 59.9323 95.7995 67.6406 93.1016C75.349 90.2109 83.0573 88.2839 90.7656 87.3203C98.6667 86.1641 106.279 85.9714 113.602 86.7422C120.924 87.3203 127.573 89.0547 133.547 91.9453C139.714 94.8359 144.917 98.9792 149.156 104.375C153.396 109.771 156.19 116.516 157.539 124.609C157.346 135.208 154.263 145.133 148.289 154.383C142.315 163.633 134.992 172.112 126.32 179.82C117.648 187.336 108.302 194.081 98.2812 200.055C88.2604 205.836 79.0104 210.943 70.5312 215.375C62.0521 219.615 55.1146 222.987 49.7188 225.492C44.3229 227.997 41.8177 229.539 42.2031 230.117L38.4453 326.664C38.4453 328.206 37.7708 329.362 36.4219 330.133C35.0729 330.711 33.5312 331 31.7969 331C30.0625 330.807 28.3281 330.422 26.5938 329.844C24.8594 329.073 23.6068 328.206 22.8359 327.242ZM42.2031 209.883C52.0312 206.221 62.2448 201.982 72.8438 197.164C83.4427 192.346 93.3672 186.854 102.617 180.688C111.867 174.328 119.961 167.198 126.898 159.297C134.029 151.203 138.846 141.953 141.352 131.547C139.81 120.562 135.474 112.661 128.344 107.844C121.406 102.833 113.023 100.328 103.195 100.328C93.5599 100.135 83.25 102.159 72.2656 106.398C61.474 110.445 51.4531 116.13 42.2031 123.453V209.883Z" fill="black"/>
<path d="M94.5039 330.711C93.9258 322.232 93.4922 314.042 93.2031 306.141C93.0104 298.24 92.8659 289.712 92.7695 280.559C92.6732 271.405 92.5768 261.143 92.4805 249.773C92.3841 238.404 92.1914 225.059 91.9023 209.738C93.1549 209.738 94.3112 209.69 95.3711 209.594C96.5273 209.401 97.4909 209.353 98.2617 209.449C99.1289 209.546 99.8034 209.883 100.285 210.461C100.767 210.943 101.008 211.906 101.008 213.352C101.008 217.302 101.008 221.156 101.008 224.914C101.104 228.576 101.152 232.622 101.152 237.055C101.152 241.487 101.152 246.546 101.152 252.23C101.249 257.915 101.297 264.66 101.297 272.465C105.055 267.551 108.475 263.648 111.559 260.758C114.738 257.771 117.725 255.555 120.52 254.109C123.314 252.568 126.012 251.652 128.613 251.363C131.311 250.978 134.009 250.93 136.707 251.219C139.79 251.219 142.344 251.893 144.367 253.242C146.391 254.495 147.98 256.229 149.137 258.445C150.389 260.565 151.257 263.022 151.738 265.816C152.22 268.611 152.461 271.501 152.461 274.488C152.365 276.608 152.22 278.921 152.027 281.426C151.835 283.835 151.257 286.484 150.293 289.375C149.426 292.169 148.029 295.108 146.102 298.191C144.174 301.275 141.428 304.551 137.863 308.02C134.395 311.392 129.962 314.909 124.566 318.57C119.267 322.232 112.763 325.99 105.055 329.844C102.549 330.518 100.574 330.952 99.1289 331.145C97.7799 331.337 96.7201 331.385 95.9492 331.289C95.2747 331.289 94.8411 331.193 94.6484 331C94.5521 330.904 94.5039 330.807 94.5039 330.711ZM101.73 321.461C102.212 321.076 103.561 320.353 105.777 319.293C107.993 318.233 110.643 316.836 113.727 315.102C116.81 313.367 120.086 311.247 123.555 308.742C127.023 306.237 130.251 303.346 133.238 300.07C136.322 296.698 138.923 292.892 141.043 288.652C143.163 284.413 144.415 279.691 144.801 274.488C144.801 273.043 144.56 271.453 144.078 269.719C143.693 267.984 143.018 266.395 142.055 264.949C141.188 263.408 140.031 262.155 138.586 261.191C137.237 260.132 135.599 259.602 133.672 259.602C129.721 259.602 126.108 260.613 122.832 262.637C119.652 264.564 116.762 267.021 114.16 270.008C111.559 272.995 109.246 276.271 107.223 279.836C105.296 283.305 103.658 286.581 102.309 289.664L101.73 321.461Z" fill="black"/>
<path d="M133.125 333C130.969 333 129.422 332.344 128.484 331.031C127.641 329.625 127.312 328.125 127.5 326.531C127.688 324.938 128.391 323.531 129.609 322.312C130.828 321 132.516 320.391 134.672 320.484C136.453 320.578 137.625 321.375 138.188 322.875C138.844 324.281 139.031 325.828 138.75 327.516C138.469 329.109 137.812 330.516 136.781 331.734C135.844 332.953 134.625 333.375 133.125 333Z" fill="black"/>
</svg>
